<svg width="168" height="48" viewBox="0 0 168 48" fill="none" xmlns="http://www.w3.org/2000/svg">
<path fill-rule="evenodd" clip-rule="evenodd" d="M32.2411 22.1887L27.1504 27.2794C26.7435 27.6862 26.0873 27.6862 25.6804 27.2794L22.638 24.2369C22.2311 23.8301 22.2311 23.1738 22.638 22.767C23.0448 22.3602 23.7011 22.3602 24.1079 22.767L26.4145 25.0736L30.7712 20.7169C31.1781 20.3101 31.8344 20.3101 32.2412 20.7169C32.648 21.1237 32.648 21.78 32.2412 22.1868L32.2411 22.1887ZM35.2942 16.1443C37.3054 18.1555 38.5471 20.9307 38.5471 24C38.5471 27.0672 37.3036 29.8442 35.2942 31.8557C33.283 33.8669 30.5077 35.1087 27.4385 35.1087C24.3713 35.1087 21.5942 33.8651 19.5828 31.8557C17.5716 29.8445 16.3298 27.0693 16.3298 24C16.3298 20.9328 17.5733 18.1558 19.5828 16.1443C21.594 14.1331 24.3692 12.8914 27.4385 12.8914C30.5057 12.8914 33.2827 14.1349 35.2942 16.1443ZM11.7982 11.059V40.5831C11.7982 41.9133 12.2687 43.1373 13.0487 44.0996H10.8341C9.86833 44.0996 8.9892 43.7052 8.35062 43.0666C7.71204 42.4298 7.31762 41.5507 7.31762 40.5831V11.059C7.31762 9.09025 8.12244 7.30017 9.42256 6.00181C10.7209 4.70346 12.511 3.89687 14.4798 3.89687H15.2156C14.9715 4.09676 14.7363 4.30902 14.5134 4.53188C12.84 6.20522 11.7999 8.51715 11.7999 11.059L11.7982 11.059ZM5.23755 11.059V40.5831C5.23755 42.122 5.86725 43.523 6.88082 44.5365C7.89439 45.5501 9.29355 46.1798 10.8343 46.1798H37.1691C38.708 46.1798 40.1089 45.5501 41.1225 44.5365C42.1361 43.523 42.7658 42.1238 42.7658 40.5831V7.41328C42.7658 5.87438 42.1361 4.47342 41.1225 3.45985C40.1089 2.44628 38.7098 1.81657 37.1691 1.81657H14.48C11.9381 1.81657 9.62792 2.85668 7.9529 4.53002C6.27779 6.20337 5.23945 8.51529 5.23945 11.0571L5.23755 11.059ZM18.4104 23.9982C18.4104 26.4905 19.4204 28.7493 21.0548 30.384C22.6892 32.0187 24.9464 33.0284 27.4406 33.0284C29.933 33.0284 32.1917 32.0184 33.8264 30.384C35.4591 28.7496 36.4709 26.4925 36.4709 23.9982C36.4709 21.5059 35.4608 19.2471 33.8264 17.6124C32.192 15.9777 29.9349 14.9679 27.4406 14.9679C24.9465 14.9679 22.6895 15.978 21.0548 17.6124C19.4201 19.2468 18.4104 21.5039 18.4104 23.9982Z" fill="#EFF6FF"/>
<path d="M70.96 34V16.27H64.81V13H81.1V16.27H74.98V34H70.96ZM86.373 34.36C85.113 34.36 84.073 34.16 83.253 33.76C82.433 33.34 81.823 32.79 81.423 32.11C81.043 31.41 80.853 30.64 80.853 29.8C80.853 28.88 81.083 28.07 81.543 27.37C82.023 26.67 82.733 26.12 83.673 25.72C84.633 25.32 85.833 25.12 87.273 25.12H91.023C91.023 24.38 90.923 23.77 90.723 23.29C90.523 22.79 90.213 22.42 89.793 22.18C89.373 21.94 88.813 21.82 88.113 21.82C87.353 21.82 86.703 21.99 86.163 22.33C85.643 22.65 85.323 23.15 85.203 23.83H81.273C81.373 22.75 81.723 21.82 82.323 21.04C82.943 20.24 83.753 19.62 84.753 19.18C85.773 18.74 86.903 18.52 88.143 18.52C89.563 18.52 90.793 18.76 91.833 19.24C92.873 19.72 93.673 20.41 94.233 21.31C94.793 22.21 95.073 23.32 95.073 24.64V34H91.653L91.203 31.69C90.983 32.09 90.723 32.45 90.423 32.77C90.123 33.09 89.773 33.37 89.373 33.61C88.973 33.85 88.523 34.03 88.023 34.15C87.523 34.29 86.973 34.36 86.373 34.36ZM87.333 31.24C87.853 31.24 88.313 31.15 88.713 30.97C89.133 30.77 89.493 30.51 89.793 30.19C90.093 29.85 90.323 29.47 90.483 29.05C90.663 28.61 90.783 28.14 90.843 27.64V27.61H87.753C87.133 27.61 86.623 27.69 86.223 27.85C85.843 27.99 85.563 28.2 85.383 28.48C85.203 28.76 85.113 29.08 85.113 29.44C85.113 29.84 85.203 30.17 85.383 30.43C85.563 30.69 85.823 30.89 86.163 31.03C86.503 31.17 86.893 31.24 87.333 31.24ZM105.031 34.36C103.651 34.36 102.451 34.14 101.431 33.7C100.411 33.26 99.6111 32.65 99.0311 31.87C98.4511 31.09 98.1211 30.21 98.0411 29.23H102.061C102.161 29.61 102.331 29.96 102.571 30.28C102.811 30.58 103.131 30.82 103.531 31C103.931 31.18 104.411 31.27 104.971 31.27C105.511 31.27 105.951 31.2 106.291 31.06C106.631 30.9 106.881 30.69 107.041 30.43C107.221 30.17 107.311 29.9 107.311 29.62C107.311 29.2 107.191 28.88 106.951 28.66C106.711 28.42 106.361 28.23 105.901 28.09C105.441 27.95 104.881 27.81 104.221 27.67C103.501 27.53 102.791 27.36 102.091 27.16C101.411 26.94 100.801 26.67 100.261 26.35C99.7211 26.03 99.2911 25.62 98.9711 25.12C98.6511 24.62 98.4911 24 98.4911 23.26C98.4911 22.36 98.7311 21.56 99.2111 20.86C99.6911 20.14 100.391 19.57 101.311 19.15C102.231 18.73 103.341 18.52 104.641 18.52C106.461 18.52 107.901 18.93 108.961 19.75C110.021 20.57 110.651 21.7 110.851 23.14H107.041C106.921 22.68 106.651 22.32 106.231 22.06C105.831 21.78 105.291 21.64 104.611 21.64C103.891 21.64 103.341 21.77 102.961 22.03C102.581 22.29 102.391 22.63 102.391 23.05C102.391 23.33 102.511 23.58 102.751 23.8C103.011 24.02 103.371 24.21 103.831 24.37C104.291 24.51 104.851 24.65 105.511 24.79C106.671 25.03 107.691 25.31 108.571 25.63C109.451 25.93 110.141 26.37 110.641 26.95C111.141 27.51 111.391 28.33 111.391 29.41C111.391 30.37 111.131 31.23 110.611 31.99C110.091 32.73 109.351 33.31 108.391 33.73C107.451 34.15 106.331 34.36 105.031 34.36ZM124.718 34L118.268 25.72L124.058 18.88H128.828L121.358 27.43V24.22L129.758 34H124.718ZM114.818 34V12.4H118.868V34H114.818ZM132.252 34V18.88H136.302V34H132.252ZM134.292 16.81C133.572 16.81 132.972 16.6 132.492 16.18C132.032 15.74 131.802 15.19 131.802 14.53C131.802 13.87 132.032 13.33 132.492 12.91C132.972 12.47 133.572 12.25 134.292 12.25C135.032 12.25 135.632 12.47 136.092 12.91C136.572 13.33 136.812 13.87 136.812 14.53C136.812 15.19 136.572 15.74 136.092 16.18C135.632 16.6 135.032 16.81 134.292 16.81ZM141.084 34V17.53C141.084 16.27 141.294 15.27 141.714 14.53C142.134 13.79 142.734 13.25 143.514 12.91C144.314 12.57 145.244 12.4 146.304 12.4H148.164V15.85H146.904C146.264 15.85 145.804 15.98 145.524 16.24C145.264 16.48 145.134 16.91 145.134 17.53V34H141.084ZM139.014 22.27V18.88H148.404V22.27H139.014ZM153.447 40.6L157.107 32.32H156.207L150.147 18.88H154.557L158.877 28.63L162.777 18.88H167.067L157.737 40.6H153.447Z" fill="#EFF6FF"/>
</svg>
